<svg width="38" height="38" viewBox="0 0 38 38" fill="none" xmlns="http://www.w3.org/2000/svg">
<path d="M32.0625 33.25C31.9065 33.2503 31.752 33.2196 31.608 33.1599C31.4639 33.1001 31.3331 33.0125 31.2231 32.9019L5.09807 6.77692C4.88477 6.5524 4.76762 6.25345 4.77158 5.9438C4.77555 5.63414 4.90032 5.33829 5.11929 5.11931C5.33827 4.90033 5.63413 4.77556 5.94378 4.7716C6.25344 4.76763 6.55239 4.88479 6.7769 5.09809L32.9019 31.2231C33.0679 31.3892 33.1809 31.6007 33.2266 31.831C33.2724 32.0613 33.2489 32.2999 33.1591 32.5169C33.0692 32.7338 32.9171 32.9192 32.7219 33.0497C32.5268 33.1802 32.2973 33.2499 32.0625 33.25ZM18.4062 23.442L14.5624 19.5982C14.5404 19.5764 14.5121 19.562 14.4815 19.557C14.4509 19.5521 14.4195 19.5569 14.3917 19.5708C14.3639 19.5846 14.3412 19.6068 14.3267 19.6342C14.3122 19.6616 14.3067 19.6929 14.3108 19.7236C14.466 20.7209 14.9343 21.6429 15.6479 22.3565C16.3615 23.0702 17.2836 23.5384 18.2808 23.6936C18.3115 23.6978 18.3428 23.6922 18.3702 23.6777C18.3977 23.6632 18.4198 23.6405 18.4337 23.6127C18.4475 23.585 18.4523 23.5536 18.4474 23.523C18.4425 23.4923 18.4281 23.464 18.4062 23.442ZM19.5937 14.558L23.4435 18.4063C23.4654 18.4284 23.4938 18.4431 23.5246 18.4482C23.5554 18.4533 23.587 18.4485 23.6149 18.4346C23.6429 18.4208 23.6657 18.3984 23.6802 18.3708C23.6947 18.3432 23.7002 18.3117 23.6958 18.2808C23.541 17.2822 23.0724 16.3588 22.3579 15.6443C21.6434 14.9298 20.72 14.4612 19.7214 14.3064C19.6905 14.3016 19.6588 14.3068 19.631 14.321C19.6032 14.3353 19.5805 14.358 19.5664 14.3859C19.5522 14.4138 19.5473 14.4455 19.5522 14.4764C19.5571 14.5073 19.5716 14.5359 19.5937 14.558Z" fill="black"/>
<path d="M36.4414 20.2884C36.6871 19.9028 36.817 19.4547 36.8157 18.9974C36.8144 18.5401 36.6819 18.0928 36.434 17.7086C34.4701 14.6716 31.9222 12.0917 29.0663 10.2474C25.9023 8.20488 22.4141 7.125 18.9762 7.125C17.1639 7.12744 15.3639 7.42293 13.6459 8.00004C13.5978 8.01603 13.5546 8.04407 13.5204 8.08147C13.4862 8.11888 13.4622 8.16442 13.4506 8.21375C13.439 8.26307 13.4402 8.31455 13.4541 8.36328C13.468 8.412 13.4942 8.45635 13.5301 8.49211L17.0362 11.9982C17.0726 12.0347 17.1179 12.0611 17.1676 12.0747C17.2173 12.0884 17.2697 12.0889 17.3197 12.0761C18.5081 11.7865 19.7511 11.8077 20.9289 12.1378C22.1068 12.4678 23.1798 13.0955 24.0448 13.9604C24.9097 14.8253 25.5374 15.8984 25.8674 17.0763C26.1975 18.2541 26.2187 19.4971 25.9291 20.6855C25.9164 20.7354 25.917 20.7876 25.9307 20.8372C25.9443 20.8868 25.9706 20.9319 26.007 20.9683L31.0501 26.0152C31.1026 26.0677 31.1729 26.0987 31.2471 26.102C31.3213 26.1053 31.394 26.0807 31.4509 26.033C33.3922 24.3783 35.0744 22.442 36.4414 20.2884ZM19 26.125C17.9214 26.1251 16.8569 25.8802 15.8867 25.409C14.9165 24.9378 14.0659 24.2524 13.3992 23.4046C12.7324 22.5568 12.2668 21.5687 12.0375 20.5148C11.8082 19.4609 11.8211 18.3686 12.0754 17.3204C12.088 17.2706 12.0874 17.2183 12.0738 17.1687C12.0601 17.1192 12.0338 17.074 11.9975 17.0377L7.03668 12.0746C6.98407 12.022 6.91361 11.991 6.83924 11.9878C6.76487 11.9847 6.69203 12.0096 6.63515 12.0576C4.82496 13.6021 3.14687 15.4813 1.61277 17.6774C1.34423 18.0628 1.19634 18.5194 1.18788 18.9891C1.17943 19.4587 1.31079 19.9203 1.56527 20.3152C3.52539 23.3826 6.04734 25.9662 8.85949 27.7853C12.0279 29.8359 15.4316 30.875 18.9762 30.875C20.8069 30.8701 22.6256 30.5809 24.3675 30.0178C24.416 30.0023 24.4597 29.9746 24.4944 29.9373C24.5291 29.9 24.5537 29.8544 24.5657 29.8049C24.5777 29.7554 24.5767 29.7037 24.563 29.6547C24.5492 29.6056 24.523 29.561 24.487 29.525L20.9638 26.0025C20.9275 25.9662 20.8823 25.9399 20.8327 25.9262C20.7832 25.9126 20.7309 25.912 20.681 25.9246C20.1307 26.058 19.5663 26.1252 19 26.125Z" fill="black"/>
</svg>
