<svg width="55" height="55" viewBox="0 0 55 55" fill="none" xmlns="http://www.w3.org/2000/svg">
<path fill-rule="evenodd" clip-rule="evenodd" d="M27.5 0C42.6882 0 54.9999 12.3117 54.9999 27.5C54.9999 42.6882 42.6882 54.9999 27.5 54.9999C12.3117 54.9999 0 42.6882 0 27.5C0 12.3117 12.3117 0 27.5 0ZM27.4752 38.4999C26.7459 38.4999 26.0464 38.7897 25.5307 39.3054C25.0149 39.8211 24.7252 40.5206 24.7252 41.2499C24.7252 41.9793 25.0149 42.6788 25.5307 43.1945C26.0464 43.7102 26.7459 43.9999 27.4752 43.9999H27.5C28.2293 43.9999 28.9288 43.7102 29.4445 43.1945C29.9602 42.6788 30.25 41.9793 30.25 41.2499C30.25 40.5206 29.9602 39.8211 29.4445 39.3054C28.9288 38.7897 28.2293 38.4999 27.5 38.4999H27.4752ZM34.9552 15.5925C32.3977 11.231 26.8867 9.65249 22.4372 12.2622L22.396 12.2897C19.7395 13.9122 17.875 16.786 17.875 20.185C17.875 20.9143 18.1647 21.6138 18.6804 22.1295C19.1962 22.6452 19.8956 22.935 20.625 22.935C21.3543 22.935 22.0538 22.6452 22.5695 22.1295C23.0852 21.6138 23.375 20.9143 23.375 20.185C23.375 18.8925 24.0707 17.7127 25.2532 16.9867C26.9885 15.9912 29.1445 16.555 30.2087 18.3727C31.229 20.1107 30.6762 22.2805 28.8557 23.3557C27.4636 24.1601 26.3079 25.3167 25.5046 26.7094C24.7013 28.1021 24.2789 29.6817 24.2797 31.2895V33C24.2797 33.7293 24.5694 34.4288 25.0852 34.9445C25.6009 35.4602 26.3004 35.7499 27.0297 35.7499C27.7591 35.7499 28.4585 35.4602 28.9743 34.9445C29.49 34.4288 29.7797 33.7293 29.7797 33V31.2922C29.7797 30.008 30.4507 28.7897 31.6112 28.1215L31.625 28.1132C35.9864 25.5557 37.5649 20.0447 34.9525 15.5952" fill="black"/>
</svg>
