<svg width="28" height="28" viewBox="0 0 28 28" fill="none" xmlns="http://www.w3.org/2000/svg">
<g clip-path="url(#clip0_29_447)">
<path d="M17.8893 3.1111H5.44484C5.03228 3.1111 4.63661 3.27499 4.34489 3.56671C4.05317 3.85843 3.88928 4.2541 3.88928 4.66666V23.3334C3.88928 23.7459 4.05317 24.1416 4.34489 24.4333C4.63661 24.725 5.03228 24.8889 5.44484 24.8889H17.8893C18.3019 24.8889 18.6975 24.725 18.9892 24.4333C19.281 24.1416 19.4449 23.7459 19.4449 23.3334V18.6667H12.1571C11.9508 18.6667 11.753 18.5847 11.6071 18.4389C11.4612 18.293 11.3793 18.0952 11.3793 17.8889C11.3793 17.6826 11.4612 17.4848 11.6071 17.3389C11.753 17.1931 11.9508 17.1111 12.1571 17.1111H19.4449V4.66666C19.4449 4.2541 19.281 3.85843 18.9892 3.56671C18.6975 3.27499 18.3019 3.1111 17.8893 3.1111Z" fill="black"/>
<path d="M21.9022 13.44C21.7534 13.3125 21.562 13.246 21.3662 13.2535C21.1705 13.2611 20.9848 13.3422 20.8463 13.4808C20.7078 13.6193 20.6266 13.805 20.6191 14.0007C20.6115 14.1965 20.6781 14.3878 20.8055 14.5366L23.4344 17.1111H19.4444V18.6666H23.4344L20.8055 21.3578C20.7241 21.4275 20.658 21.5133 20.6113 21.6098C20.5646 21.7063 20.5384 21.8114 20.5342 21.9185C20.5301 22.0256 20.5481 22.1324 20.5872 22.2322C20.6263 22.332 20.6856 22.4227 20.7614 22.4985C20.8372 22.5743 20.9279 22.6336 21.0277 22.6727C21.1275 22.7118 21.2343 22.7299 21.3414 22.7257C21.4485 22.7216 21.5537 22.6953 21.6501 22.6487C21.7466 22.602 21.8324 22.5358 21.9022 22.4544L26.4444 17.9433L21.9022 13.44Z" fill="black"/>
</g>
<defs>
<clipPath id="clip0_29_447">
<rect width="27.3418" height="27.3418" fill="white" transform="scale(1.02407)"/>
</clipPath>
</defs>
</svg>
