<svg width="46" height="46" viewBox="0 0 46 46" fill="none" xmlns="http://www.w3.org/2000/svg">
<path d="M36.9452 13.2946C38.3462 15.3031 39.2947 17.5916 39.7253 20.0023H44.9852V25.9977H39.7253C39.2947 28.4083 38.3462 30.6969 36.9452 32.7054L40.6662 36.4264L36.4264 40.6662L32.7054 36.9452C30.6969 38.3462 28.4083 39.2947 25.9977 39.7253V44.9852H20.0023V39.7253C17.5916 39.2947 15.3031 38.3462 13.2946 36.9452L9.57357 40.6662L5.33371 36.4264L9.05472 32.7054C7.6538 30.6969 6.7053 28.4083 6.27468 25.9977H1.0147V20.0023H6.27468C6.7053 17.5916 7.6538 15.3031 9.05472 13.2946L5.33371 9.57357L9.57357 5.33371L13.2946 9.05472C15.3031 7.6538 17.5916 6.7053 20.0023 6.27468V1.0147H25.9977V6.27468C28.4083 6.7053 30.6969 7.6538 32.7054 9.05472L36.4264 5.33371L40.6662 9.57357L36.9452 13.2946Z" fill="white" stroke="white" stroke-width="2" stroke-linejoin="round"/>
<path d="M23 28.4963C24.4577 28.4963 25.8557 27.9172 26.8865 26.8865C27.9172 25.8557 28.4963 24.4577 28.4963 23C28.4963 21.5423 27.9172 20.1443 26.8865 19.1135C25.8557 18.0827 24.4577 17.5037 23 17.5037C21.5423 17.5037 20.1443 18.0827 19.1135 19.1135C18.0827 20.1443 17.5037 21.5423 17.5037 23C17.5037 24.4577 18.0827 25.8557 19.1135 26.8865C20.1443 27.9172 21.5423 28.4963 23 28.4963Z" fill="black" stroke="black" stroke-width="2" stroke-linejoin="round"/>
</svg>
