<svg width="28" height="28" viewBox="0 0 28 28" fill="none" xmlns="http://www.w3.org/2000/svg">
<g clip-path="url(#clip0_29_550)">
<path d="M17.8893 3.11109H5.44482C5.03227 3.11109 4.6366 3.27498 4.34488 3.5667C4.05316 3.85842 3.88927 4.25409 3.88927 4.66665V23.3333C3.88927 23.7459 4.05316 24.1415 4.34488 24.4332C4.6366 24.725 5.03227 24.8889 5.44482 24.8889H17.8893C18.3018 24.8889 18.6975 24.725 18.9892 24.4332C19.2809 24.1415 19.4448 23.7459 19.4448 23.3333V18.6666H12.157C11.9508 18.6666 11.7529 18.5847 11.6071 18.4388C11.4612 18.293 11.3793 18.0951 11.3793 17.8889C11.3793 17.6826 11.4612 17.4847 11.6071 17.3389C11.7529 17.193 11.9508 17.1111 12.157 17.1111H19.4448V4.66665C19.4448 4.25409 19.2809 3.85842 18.9892 3.5667C18.6975 3.27498 18.3018 3.11109 17.8893 3.11109Z" fill="black"/>
<path d="M21.9021 13.44C21.7533 13.3126 21.5619 13.246 21.3662 13.2536C21.1704 13.2611 20.9848 13.3423 20.8462 13.4808C20.7077 13.6193 20.6266 13.805 20.619 14.0007C20.6115 14.1965 20.678 14.3879 20.8055 14.5367L23.4343 17.1111H19.4443V18.6667H23.4343L20.8055 21.3578C20.724 21.4275 20.6579 21.5133 20.6112 21.6098C20.5645 21.7063 20.5383 21.8114 20.5342 21.9185C20.53 22.0256 20.5481 22.1324 20.5872 22.2322C20.6263 22.3321 20.6856 22.4227 20.7614 22.4985C20.8372 22.5743 20.9278 22.6336 21.0276 22.6727C21.1275 22.7118 21.2343 22.7299 21.3414 22.7257C21.4485 22.7216 21.5536 22.6954 21.6501 22.6487C21.7466 22.602 21.8324 22.5359 21.9021 22.4544L26.4443 17.9433L21.9021 13.44Z" fill="black"/>
</g>
<defs>
<clipPath id="clip0_29_550">
<rect width="27.3418" height="27.3418" fill="white" transform="scale(1.02407)"/>
</clipPath>
</defs>
</svg>
