<svg width="44" height="44" viewBox="0 0 44 44" fill="none" xmlns="http://www.w3.org/2000/svg">
<path d="M21.89 35.2C22.66 35.2 23.3112 34.9338 23.8436 34.4014C24.376 33.869 24.6414 33.2185 24.64 32.45C24.6385 31.6814 24.373 31.0302 23.8436 30.4964C23.3141 29.9625 22.6629 29.697 21.89 29.7C21.117 29.7029 20.4666 29.9691 19.9386 30.4986C19.4106 31.028 19.1444 31.6785 19.14 32.45C19.1356 33.2214 19.4018 33.8726 19.9386 34.4036C20.4754 34.9345 21.1258 35.2 21.89 35.2ZM19.91 26.73H23.98C23.98 25.52 24.1178 24.5667 24.3936 23.87C24.6693 23.1733 25.4481 22.22 26.73 21.01C27.6833 20.0567 28.435 19.1488 28.985 18.2864C29.535 17.424 29.81 16.3885 29.81 15.18C29.81 13.1267 29.0583 11.55 27.555 10.45C26.0516 9.35 24.2733 8.8 22.22 8.8C20.13 8.8 18.4345 9.35 17.1336 10.45C15.8327 11.55 14.9248 12.87 14.41 14.41L18.04 15.84C18.2233 15.18 18.6362 14.465 19.2786 13.695C19.921 12.925 20.9015 12.54 22.22 12.54C23.3933 12.54 24.2733 12.8612 24.86 13.5036C25.4466 14.146 25.74 14.8515 25.74 15.62C25.74 16.3533 25.52 17.0412 25.08 17.6836C24.64 18.326 24.09 18.9215 23.43 19.47C21.8166 20.9 20.8267 21.9817 20.46 22.715C20.0933 23.4483 19.91 24.7867 19.91 26.73ZM22 44C18.9567 44 16.0967 43.4228 13.42 42.2686C10.7433 41.1143 8.415 39.5464 6.435 37.565C4.455 35.5835 2.88787 33.2552 1.7336 30.58C0.579336 27.9048 0.00146945 25.0448 2.78481e-06 22C-0.00146388 18.9552 0.576402 16.0952 1.7336 13.42C2.8908 10.7448 4.45793 8.41647 6.435 6.435C8.41206 4.45354 10.7404 2.88641 13.42 1.73361C16.0996 0.580811 18.9596 0.00294444 22 1.11111e-05C25.0404 -0.00292222 27.9004 0.574944 30.58 1.73361C33.2596 2.89228 35.5879 4.45941 37.565 6.435C39.542 8.4106 41.1099 10.7389 42.2686 13.42C43.4272 16.1011 44.0044 18.9611 44 22C43.9956 25.0389 43.4177 27.8989 42.2664 30.58C41.115 33.261 39.5479 35.5894 37.565 37.565C35.582 39.5406 33.2537 41.1084 30.58 42.2686C27.9062 43.4287 25.0462 44.0058 22 44Z" fill="black"/>
</svg>
