<svg width="46" height="46" viewBox="0 0 46 46" fill="none" xmlns="http://www.w3.org/2000/svg">
<path d="M36.9453 13.2946C38.3462 15.3031 39.2947 17.5916 39.7253 20.0023H44.9853V25.9977H39.7253C39.2947 28.4084 38.3462 30.6969 36.9453 32.7054L40.6663 36.4264L36.4264 40.6663L32.7054 36.9453C30.6969 38.3462 28.4084 39.2947 25.9977 39.7253V44.9853H20.0023V39.7253C17.5916 39.2947 15.3031 38.3462 13.2946 36.9453L9.57358 40.6663L5.33372 36.4264L9.05473 32.7054C7.6538 30.6969 6.70531 28.4084 6.27469 25.9977H1.01471V20.0023H6.27469C6.70531 17.5916 7.6538 15.3031 9.05473 13.2946L5.33372 9.57358L9.57358 5.33372L13.2946 9.05473C15.3031 7.6538 17.5916 6.70531 20.0023 6.27469V1.01471H25.9977V6.27469C28.4084 6.70531 30.6969 7.6538 32.7054 9.05473L36.4264 5.33372L40.6663 9.57358L36.9453 13.2946Z" fill="white" stroke="white" stroke-width="2" stroke-linejoin="round"/>
<path d="M23 28.4963C24.4577 28.4963 25.8557 27.9173 26.8865 26.8865C27.9173 25.8557 28.4963 24.4577 28.4963 23C28.4963 21.5423 27.9173 20.1443 26.8865 19.1135C25.8557 18.0828 24.4577 17.5037 23 17.5037C21.5423 17.5037 20.1443 18.0828 19.1135 19.1135C18.0828 20.1443 17.5037 21.5423 17.5037 23C17.5037 24.4577 18.0828 25.8557 19.1135 26.8865C20.1443 27.9173 21.5423 28.4963 23 28.4963Z" fill="black" stroke="black" stroke-width="2" stroke-linejoin="round"/>
</svg>
