<svg width="37" height="37" viewBox="0 0 37 37" fill="none" xmlns="http://www.w3.org/2000/svg">
<path d="M18.5 0C20.9532 0 23.306 0.97455 25.0407 2.70926C26.7754 4.44397 27.75 6.79675 27.75 9.25C27.75 11.7032 26.7754 14.056 25.0407 15.7907C23.306 17.5254 20.9532 18.5 18.5 18.5C16.0467 18.5 13.694 17.5254 11.9593 15.7907C10.2245 14.056 9.25 11.7032 9.25 9.25C9.25 6.79675 10.2245 4.44397 11.9593 2.70926C13.694 0.97455 16.0467 0 18.5 0ZM18.5 23.125C28.7212 23.125 37 27.2644 37 32.375V37H0V32.375C0 27.2644 8.27875 23.125 18.5 23.125Z" fill="black"/>
</svg>
