<svg width="55" height="55" viewBox="0 0 55 55" fill="none" xmlns="http://www.w3.org/2000/svg">
<path fill-rule="evenodd" clip-rule="evenodd" d="M27.5 0C42.6882 0 55 12.3118 55 27.5C55 42.6882 42.6882 55 27.5 55C12.3118 55 0 42.6882 0 27.5C0 12.3118 12.3118 0 27.5 0ZM27.4752 38.5C26.7459 38.5 26.0464 38.7897 25.5307 39.3055C25.015 39.8212 24.7252 40.5207 24.7252 41.25C24.7252 41.9793 25.015 42.6788 25.5307 43.1945C26.0464 43.7103 26.7459 44 27.4752 44H27.5C28.2293 44 28.9288 43.7103 29.4445 43.1945C29.9603 42.6788 30.25 41.9793 30.25 41.25C30.25 40.5207 29.9603 39.8212 29.4445 39.3055C28.9288 38.7897 28.2293 38.5 27.5 38.5H27.4752ZM34.9553 15.5925C32.3977 11.231 26.8868 9.6525 22.4373 12.2622L22.396 12.2897C19.7395 13.9122 17.875 16.786 17.875 20.185C17.875 20.9143 18.1647 21.6138 18.6805 22.1295C19.1962 22.6453 19.8957 22.935 20.625 22.935C21.3543 22.935 22.0538 22.6453 22.5695 22.1295C23.0853 21.6138 23.375 20.9143 23.375 20.185C23.375 18.8925 24.0707 17.7127 25.2532 16.9867C26.9885 15.9912 29.1445 16.555 30.2087 18.3727C31.229 20.1107 30.6762 22.2805 28.8557 23.3557C27.4637 24.1601 26.3079 25.3168 25.5047 26.7095C24.7014 28.1021 24.2789 29.6818 24.2798 31.2895V33C24.2798 33.7293 24.5695 34.4288 25.0852 34.9445C25.6009 35.4603 26.3004 35.75 27.0297 35.75C27.7591 35.75 28.4586 35.4603 28.9743 34.9445C29.49 34.4288 29.7798 33.7293 29.7798 33V31.2922C29.7798 30.008 30.4507 28.7897 31.6112 28.1215L31.625 28.1132C35.9865 25.5557 37.565 20.0447 34.9525 15.5952" fill="#A68A56" fill-opacity="0.85098"/>
</svg>
