<svg width="55" height="55" viewBox="0 0 55 55" fill="none" xmlns="http://www.w3.org/2000/svg">
<path fill-rule="evenodd" clip-rule="evenodd" d="M27.5 0C42.6883 0 55 12.3118 55 27.5C55 42.6883 42.6883 55 27.5 55C12.3118 55 0 42.6883 0 27.5C0 12.3118 12.3118 0 27.5 0ZM27.4753 38.5C26.7459 38.5 26.0465 38.7898 25.5307 39.3055C25.015 39.8212 24.7253 40.5207 24.7253 41.25C24.7253 41.9794 25.015 42.6789 25.5307 43.1946C26.0465 43.7103 26.7459 44 27.4753 44H27.5C28.2294 44 28.9288 43.7103 29.4446 43.1946C29.9603 42.6789 30.25 41.9794 30.25 41.25C30.25 40.5207 29.9603 39.8212 29.4446 39.3055C28.9288 38.7898 28.2294 38.5 27.5 38.5H27.4753ZM34.9553 15.5925C32.3978 11.231 26.8868 9.65251 22.4373 12.2623L22.396 12.2898C19.7395 13.9123 17.875 16.786 17.875 20.185C17.875 20.9144 18.1647 21.6138 18.6805 22.1296C19.1962 22.6453 19.8957 22.935 20.625 22.935C21.3544 22.935 22.0538 22.6453 22.5696 22.1296C23.0853 21.6138 23.375 20.9144 23.375 20.185C23.375 18.8925 24.0708 17.7128 25.2533 16.9868C26.9885 15.9913 29.1445 16.555 30.2088 18.3728C31.229 20.1108 30.6763 22.2805 28.8558 23.3558C27.4637 24.1601 26.3079 25.3168 25.5047 26.7095C24.7014 28.1022 24.2789 29.6818 24.2798 31.2895V33C24.2798 33.7294 24.5695 34.4288 25.0852 34.9446C25.601 35.4603 26.3004 35.75 27.0298 35.75C27.7591 35.75 28.4586 35.4603 28.9743 34.9446C29.49 34.4288 29.7798 33.7294 29.7798 33V31.2923C29.7798 30.008 30.4508 28.7898 31.6113 28.1215L31.625 28.1133C35.9865 25.5558 37.565 20.0448 34.9525 15.5953" fill="#A68A56" fill-opacity="0.85098"/>
</svg>
