<svg width="55" height="55" viewBox="0 0 55 55" fill="none" xmlns="http://www.w3.org/2000/svg">
<path fill-rule="evenodd" clip-rule="evenodd" d="M27.5001 0C42.6884 0 55.0002 12.3118 55.0002 27.5001C55.0002 42.6884 42.6884 55.0002 27.5001 55.0002C12.3118 55.0002 0 42.6884 0 27.5001C0 12.3118 12.3118 0 27.5001 0ZM27.4753 38.5001C26.746 38.5001 26.0465 38.7898 25.5308 39.3056C25.0151 39.8213 24.7253 40.5208 24.7253 41.2501C24.7253 41.9795 25.0151 42.679 25.5308 43.1947C26.0465 43.7104 26.746 44.0001 27.4753 44.0001H27.5001C28.2294 44.0001 28.9289 43.7104 29.4446 43.1947C29.9604 42.679 30.2501 41.9795 30.2501 41.2501C30.2501 40.5208 29.9604 39.8213 29.4446 39.3056C28.9289 38.7898 28.2294 38.5001 27.5001 38.5001H27.4753ZM34.9554 15.5925C32.3978 11.231 26.8868 9.65253 22.4373 12.2623L22.3961 12.2898C19.7396 13.9123 17.8751 16.7861 17.8751 20.1851C17.8751 20.9144 18.1648 21.6139 18.6805 22.1296C19.1962 22.6453 19.8957 22.9351 20.6251 22.9351C21.3544 22.9351 22.0539 22.6453 22.5696 22.1296C23.0853 21.6139 23.3751 20.9144 23.3751 20.1851C23.3751 18.8926 24.0708 17.7128 25.2533 16.9868C26.9886 15.9913 29.1446 16.555 30.2088 18.3728C31.2291 20.1108 30.6763 22.2806 28.8558 23.3558C27.4638 24.1602 26.308 25.3168 25.5047 26.7095C24.7015 28.1022 24.279 29.6819 24.2798 31.2896V33.0001C24.2798 33.7294 24.5696 34.4289 25.0853 34.9446C25.601 35.4604 26.3005 35.7501 27.0298 35.7501C27.7592 35.7501 28.4587 35.4604 28.9744 34.9446C29.4901 34.4289 29.7798 33.7294 29.7798 33.0001V31.2923C29.7798 30.0081 30.4508 28.7898 31.6113 28.1216L31.6251 28.1133C35.9866 25.5558 37.5651 20.0448 34.9526 15.5953" fill="#A68A56" fill-opacity="0.85098"/>
</svg>
