<svg width="55" height="55" viewBox="0 0 55 55" fill="none" xmlns="http://www.w3.org/2000/svg">
<path fill-rule="evenodd" clip-rule="evenodd" d="M27.4998 0C42.688 0 54.9997 12.3117 54.9997 27.4998C54.9997 42.688 42.688 54.9997 27.4998 54.9997C12.3117 54.9997 0 42.688 0 27.4998C0 12.3117 12.3117 0 27.4998 0ZM27.4751 38.4998C26.7457 38.4998 26.0463 38.7895 25.5306 39.3052C25.0148 39.8209 24.7251 40.5204 24.7251 41.2498C24.7251 41.9791 25.0148 42.6786 25.5306 43.1943C26.0463 43.71 26.7457 43.9997 27.4751 43.9997H27.4998C28.2292 43.9997 28.9286 43.71 29.4444 43.1943C29.9601 42.6786 30.2498 41.9791 30.2498 41.2498C30.2498 40.5204 29.9601 39.8209 29.4444 39.3052C28.9286 38.7895 28.2292 38.4998 27.4998 38.4998H27.4751ZM34.955 15.5924C32.3976 11.2309 26.8866 9.65244 22.4371 12.2622L22.3959 12.2897C19.7394 13.9122 17.8749 16.7859 17.8749 20.1849C17.8749 20.9142 18.1646 21.6137 18.6803 22.1294C19.1961 22.6451 19.8955 22.9349 20.6249 22.9349C21.3542 22.9349 22.0537 22.6451 22.5694 22.1294C23.0851 21.6137 23.3749 20.9142 23.3749 20.1849C23.3749 18.8924 24.0706 17.7126 25.2531 16.9866C26.9883 15.9912 29.1443 16.5549 30.2086 18.3726C31.2288 20.1106 30.6761 22.2804 28.8556 23.3556C27.4635 24.16 26.3078 25.3166 25.5045 26.7093C24.7012 28.102 24.2788 29.6816 24.2796 31.2893V32.9998C24.2796 33.7291 24.5693 34.4286 25.0851 34.9443C25.6008 35.4601 26.3002 35.7498 27.0296 35.7498C27.7589 35.7498 28.4584 35.4601 28.9741 34.9443C29.4898 34.4286 29.7796 33.7291 29.7796 32.9998V31.2921C29.7796 30.0078 30.4506 28.7896 31.6111 28.1213L31.6248 28.1131C35.9863 25.5556 37.5648 20.0446 34.9523 15.5952" fill="#A68A56" fill-opacity="0.85098"/>
</svg>
