<svg width="46" height="46" viewBox="0 0 46 46" fill="none" xmlns="http://www.w3.org/2000/svg">
<path d="M36.9451 13.2945C38.3461 15.303 39.2945 17.5916 39.7252 20.0022H44.9851V25.9976H39.7252C39.2945 28.4083 38.3461 30.6968 36.9451 32.7053L40.6661 36.4263L36.4263 40.6661L32.7053 36.9451C30.6968 38.3461 28.4083 39.2945 25.9976 39.7252V44.9851H20.0022V39.7252C17.5916 39.2945 15.303 38.3461 13.2945 36.9451L9.57355 40.6661L5.3337 36.4263L9.0547 32.7053C7.65377 30.6968 6.70528 28.4083 6.27466 25.9976H1.0147V20.0022H6.27466C6.70528 17.5916 7.65377 15.303 9.0547 13.2945L5.3337 9.57355L9.57355 5.3337L13.2945 9.0547C15.303 7.65377 17.5916 6.70528 20.0022 6.27466V1.0147H25.9976V6.27466C28.4083 6.70528 30.6968 7.65377 32.7053 9.0547L36.4263 5.3337L40.6661 9.57355L36.9451 13.2945Z" fill="white" stroke="white" stroke-width="2" stroke-linejoin="round"/>
<path d="M22.9999 28.4962C24.4576 28.4962 25.8556 27.9171 26.8864 26.8864C27.9171 25.8556 28.4962 24.4576 28.4962 22.9999C28.4962 21.5422 27.9171 20.1442 26.8864 19.1134C25.8556 18.0827 24.4576 17.5036 22.9999 17.5036C21.5422 17.5036 20.1442 18.0827 19.1134 19.1134C18.0827 20.1442 17.5036 21.5422 17.5036 22.9999C17.5036 24.4576 18.0827 25.8556 19.1134 26.8864C20.1442 27.9171 21.5422 28.4962 22.9999 28.4962Z" fill="black" stroke="black" stroke-width="2" stroke-linejoin="round"/>
</svg>
