<svg width="39" height="42" viewBox="0 0 39 42" fill="none" xmlns="http://www.w3.org/2000/svg">
<path d="M19.4998 0C15.4496 0 11.5652 1.60895 8.70127 4.4729C5.83731 7.33685 4.22836 11.2212 4.22836 15.2714V22.9683C4.22868 23.3067 4.15025 23.6405 3.99929 23.9434L0.253425 31.433C0.0704433 31.7989 -0.015959 32.2055 0.00242443 32.6142C0.0208078 33.0229 0.143366 33.4201 0.35846 33.7681C0.573553 34.1161 0.87404 34.4033 1.23138 34.6025C1.58872 34.8017 1.99105 34.9062 2.40015 34.9062H36.5995C37.0086 34.9062 37.4109 34.8017 37.7682 34.6025C38.1256 34.4033 38.4261 34.1161 38.6412 33.7681C38.8563 33.4201 38.9788 33.0229 38.9972 32.6142C39.0156 32.2055 38.9292 31.7989 38.7462 31.433L35.0025 23.9434C34.8508 23.6407 34.7716 23.3069 34.7713 22.9683V15.2714C34.7713 11.2212 33.1623 7.33685 30.2983 4.4729C27.4344 1.60895 23.55 0 19.4998 0ZM19.4998 41.4511C18.1458 41.4518 16.8248 41.0325 15.7191 40.251C14.6133 39.4696 13.7771 38.3644 13.3258 37.0878H25.6738C25.2225 38.3644 24.3863 39.4696 23.2805 40.251C22.1748 41.0325 20.8538 41.4518 19.4998 41.4511Z" fill="#09192F"/>
</svg>
