<svg width="46" height="46" viewBox="0 0 46 46" fill="none" xmlns="http://www.w3.org/2000/svg">
<path d="M36.9453 13.2946C38.3463 15.3031 39.2948 17.5917 39.7254 20.0023H44.9854V25.9977H39.7254C39.2948 28.4084 38.3463 30.6969 36.9453 32.7055L40.6664 36.4265L36.4265 40.6664L32.7055 36.9453C30.6969 38.3463 28.4084 39.2948 25.9977 39.7254V44.9854H20.0023V39.7254C17.5917 39.2948 15.3031 38.3463 13.2946 36.9453L9.5736 40.6664L5.33373 36.4265L9.05474 32.7055C7.65382 30.6969 6.70532 28.4084 6.2747 25.9977H1.01471V20.0023H6.2747C6.70532 17.5917 7.65382 15.3031 9.05474 13.2946L5.33373 9.5736L9.5736 5.33373L13.2946 9.05474C15.3031 7.65382 17.5917 6.70532 20.0023 6.2747V1.01471H25.9977V6.2747C28.4084 6.70532 30.6969 7.65382 32.7055 9.05474L36.4265 5.33373L40.6664 9.5736L36.9453 13.2946Z" fill="white" stroke="white" stroke-width="2" stroke-linejoin="round"/>
<path d="M23 28.4964C24.4578 28.4964 25.8558 27.9173 26.8865 26.8865C27.9173 25.8558 28.4964 24.4578 28.4964 23C28.4964 21.5423 27.9173 20.1443 26.8865 19.1135C25.8558 18.0828 24.4578 17.5037 23 17.5037C21.5423 17.5037 20.1443 18.0828 19.1135 19.1135C18.0828 20.1443 17.5037 21.5423 17.5037 23C17.5037 24.4578 18.0828 25.8558 19.1135 26.8865C20.1443 27.9173 21.5423 28.4964 23 28.4964Z" fill="black" stroke="black" stroke-width="2" stroke-linejoin="round"/>
</svg>
