<svg width="44" height="44" viewBox="0 0 44 44" fill="none" xmlns="http://www.w3.org/2000/svg">
<path d="M21.8899 35.1999C22.6599 35.1999 23.3111 34.9337 23.8435 34.4013C24.3759 33.8689 24.6414 33.2184 24.6399 32.4499C24.6384 31.6814 24.373 31.0302 23.8435 30.4963C23.314 29.9624 22.6628 29.697 21.8899 29.6999C21.117 29.7028 20.4665 29.969 19.9385 30.4985C19.4105 31.028 19.1443 31.6784 19.1399 32.4499C19.1355 33.2214 19.4017 33.8726 19.9385 34.4035C20.4753 34.9344 21.1258 35.1999 21.8899 35.1999ZM19.9099 26.7299H23.9799C23.9799 25.5199 24.1178 24.5666 24.3935 23.8699C24.6692 23.1733 25.448 22.2199 26.7299 21.0099C27.6832 20.0566 28.4349 19.1487 28.9849 18.2863C29.5349 17.4239 29.8099 16.3885 29.8099 15.18C29.8099 13.1266 29.0582 11.55 27.5549 10.45C26.0516 9.34998 24.2732 8.79998 22.2199 8.79998C20.1299 8.79998 18.4345 9.34998 17.1335 10.45C15.8326 11.55 14.9247 12.87 14.4099 14.41L18.0399 15.84C18.2233 15.18 18.6361 14.465 19.2785 13.695C19.9209 12.925 20.9014 12.54 22.2199 12.54C23.3932 12.54 24.2732 12.8612 24.8599 13.5036C25.4466 14.146 25.7399 14.8514 25.7399 15.62C25.7399 16.3533 25.5199 17.0411 25.0799 17.6835C24.6399 18.3259 24.0899 18.9214 23.4299 19.4699C21.8166 20.8999 20.8266 21.9816 20.4599 22.7149C20.0933 23.4483 19.9099 24.7866 19.9099 26.7299ZM21.9999 43.9998C18.9566 43.9998 16.0966 43.4227 13.42 42.2684C10.7433 41.1142 8.41497 39.5463 6.43498 37.5649C4.45499 35.5834 2.88786 33.2551 1.7336 30.5799C0.579334 27.9047 0.00146945 25.0447 2.7848e-06 21.9999C-0.00146388 18.9551 0.576401 16.0952 1.7336 13.42C2.89079 10.7448 4.45792 8.41645 6.43498 6.43499C8.41204 4.45353 10.7404 2.8864 13.42 1.7336C16.0995 0.580809 18.9595 0.00294443 21.9999 1.11111e-05C25.0403 -0.00292221 27.9003 0.574943 30.5799 1.7336C33.2595 2.89227 35.5878 4.45939 37.5649 6.43499C39.5419 8.41058 41.1098 10.7389 42.2684 13.42C43.4271 16.101 44.0042 18.961 43.9998 21.9999C43.9954 25.0388 43.4176 27.8988 42.2662 30.5799C41.1149 33.2609 39.5478 35.5893 37.5649 37.5649C35.5819 39.5405 33.2536 41.1083 30.5799 42.2684C27.9062 43.4286 25.0462 44.0057 21.9999 43.9998Z" fill="#09192F"/>
</svg>
