<svg width="150" height="150" viewBox="0 0 150 150" fill="none" xmlns="http://www.w3.org/2000/svg">
<path d="M17.1875 12.5C17.1875 11.2568 16.6936 10.0645 15.8146 9.18544C14.9355 8.30636 13.7432 7.8125 12.5 7.8125C11.2568 7.8125 10.0645 8.30636 9.18544 9.18544C8.30636 10.0645 7.8125 11.2568 7.8125 12.5V75.3563C7.8125 89.7875 7.8125 101.094 9 109.919C10.2125 118.944 12.75 126.069 18.3375 131.662C23.9312 137.256 31.0562 139.787 40.0875 141C48.9062 142.188 60.2125 142.188 74.6437 142.188H137.5C138.743 142.188 139.935 141.694 140.815 140.815C141.694 139.935 142.188 138.743 142.188 137.5C142.188 136.257 141.694 135.065 140.815 134.185C139.935 133.306 138.743 132.812 137.5 132.812H75C60.1375 132.812 49.4625 132.8 41.3375 131.712C33.3437 130.637 28.525 128.587 24.9625 125.031C21.4062 121.469 19.3625 116.656 18.2875 108.662C17.2 100.537 17.1875 89.8625 17.1875 75V12.5Z" fill="black"/>
<path d="M122.425 46.6627C122.821 46.1819 123.117 45.6271 123.296 45.0306C123.475 44.4341 123.533 43.8079 123.467 43.1886C123.402 42.5693 123.213 41.9693 122.913 41.4237C122.613 40.878 122.207 40.3976 121.719 40.0106C121.231 39.6236 120.671 39.3377 120.071 39.1696C119.472 39.0015 118.845 38.9546 118.227 39.0316C117.609 39.1086 117.012 39.308 116.472 39.6181C115.932 39.9282 115.459 40.3428 115.081 40.8377L95.5935 65.3752C94.0623 67.3064 93.056 68.5627 92.2248 69.4752C91.4123 70.3689 91.0373 70.6189 90.8623 70.7127C90.2125 71.0591 89.4902 71.2475 88.754 71.2627C88.0178 71.2779 87.2883 71.1195 86.6248 70.8002C86.4498 70.719 86.0623 70.4877 85.206 69.6314C84.3435 68.7564 83.281 67.5377 81.6685 65.6752L81.5623 65.5627C80.081 63.8502 78.8123 62.3877 77.6873 61.2627C76.541 60.03 75.1871 59.0082 73.6873 58.244C71.6948 57.287 69.5049 56.8132 67.295 56.861C65.0852 56.9088 62.9178 57.4768 60.9685 58.5189C59.5 59.3461 58.1883 60.425 57.0935 61.7065C56.031 62.8815 54.8248 64.394 53.4123 66.1752L33.831 90.8377C33.4211 91.3164 33.112 91.8729 32.922 92.4738C32.7321 93.0747 32.6653 93.7077 32.7256 94.3351C32.7859 94.9624 32.9721 95.5711 33.2731 96.1248C33.574 96.6786 33.9835 97.1659 34.4771 97.5578C34.9707 97.9496 35.5382 98.2379 36.1458 98.4054C36.7533 98.5729 37.3884 98.6161 38.0131 98.5326C38.6377 98.449 39.2391 98.2404 39.7813 97.9191C40.3235 97.5978 40.7953 97.1705 41.1685 96.6627L60.6623 72.1252C62.1935 70.1939 63.1998 68.9377 64.0248 68.0252C64.8373 67.1314 65.2123 66.8814 65.3873 66.7877C66.0371 66.4413 66.7594 66.2529 67.4956 66.2377C68.2318 66.2225 68.9612 66.3809 69.6248 66.7002C69.806 66.7814 70.1935 67.0127 71.0435 67.8689C71.9123 68.7439 72.9685 69.9627 74.5873 71.8252L74.6873 71.9377C76.1748 73.6502 77.4373 75.1127 78.5623 76.2377C79.7185 77.4064 80.9935 78.5002 82.5623 79.2564C84.5547 80.2134 86.7447 80.6872 88.9545 80.6394C91.1644 80.5917 93.3318 80.0236 95.281 78.9814C96.7425 78.1441 98.0525 77.0665 99.156 75.7939C100.219 74.6189 101.425 73.1064 102.844 71.3252L122.425 46.6627Z" fill="black"/>
</svg>
