<svg width="108" height="95" viewBox="0 0 108 95" fill="none" xmlns="http://www.w3.org/2000/svg">
<path d="M16.875 0C11.2852 0 6.75 4.53516 6.75 10.125C6.75 15.7148 11.2852 20.25 16.875 20.25H48.9375V28.6875L38.8125 38.8125H27C16.7484 38.8125 8.4375 47.1234 8.4375 57.375V67.5H6.75C3.01641 67.5 0 70.5164 0 74.25V87.75C0 91.4836 3.01641 94.5 6.75 94.5H20.25C23.9836 94.5 27 91.4836 27 87.75V74.25C27 70.5164 23.9836 67.5 20.25 67.5H18.5625V57.375C18.5625 52.7133 22.3383 48.9375 27 48.9375H38.8125L48.9375 59.0625V67.5H47.25C43.5164 67.5 40.5 70.5164 40.5 74.25V87.75C40.5 91.4836 43.5164 94.5 47.25 94.5H60.75C64.4836 94.5 67.5 91.4836 67.5 87.75V74.25C67.5 70.5164 64.4836 67.5 60.75 67.5H59.0625V59.0625L69.1875 48.9375H81C85.6617 48.9375 89.4375 52.7133 89.4375 57.375V67.5H87.75C84.0164 67.5 81 70.5164 81 74.25V87.75C81 91.4836 84.0164 94.5 87.75 94.5H101.25C104.984 94.5 108 91.4836 108 87.75V74.25C108 70.5164 104.984 67.5 101.25 67.5H99.5625V57.375C99.5625 47.1234 91.2516 38.8125 81 38.8125H69.1875L59.0625 28.6875V20.25H91.125C96.7148 20.25 101.25 15.7148 101.25 10.125C101.25 4.53516 96.7148 0 91.125 0H16.875Z" fill="black"/>
</svg>
