<svg width="49" height="47" viewBox="0 0 49 47" fill="none" xmlns="http://www.w3.org/2000/svg">
<path d="M26.3633 1.68015C26.3633 1.23455 26.168 0.807196 25.8204 0.492106C25.4729 0.177016 25.0015 0 24.51 0C24.0185 0 23.5471 0.177016 23.1995 0.492106C22.852 0.807196 22.6567 1.23455 22.6567 1.68015V4.99566C22.6567 5.44126 22.852 5.86862 23.1995 6.18371C23.5471 6.4988 24.0185 6.67581 24.51 6.67581C25.0015 6.67581 25.4729 6.4988 25.8204 6.18371C26.168 5.86862 26.3633 5.44126 26.3633 4.99566V1.68015ZM38.9926 19.5794C38.4776 17.7641 37.5427 16.0688 36.2498 14.6061C34.968 13.1332 33.3603 11.9199 31.5301 11.0442C29.7045 10.1754 27.7042 9.64969 25.6491 9.49847C23.5882 9.3581 21.5177 9.60991 19.5704 10.2377C17.6124 10.8567 15.8194 11.8412 14.3072 13.1276C12.8112 14.3923 11.6098 15.9157 10.7736 17.608C9.95645 19.3264 9.54405 21.1805 9.56282 23.0517C9.50555 25.213 10.0156 27.3556 11.051 29.3031C12.0864 31.2505 13.6174 32.947 15.518 34.2527L16.3828 34.992C17.1241 35.6865 17.1241 35.6865 17.0994 37.2322V37.9491C17.0697 38.4447 17.1538 38.9406 17.3465 39.4052C17.5195 39.9025 17.8259 40.3573 18.2361 40.7269C18.4239 40.9017 18.6298 41.0585 18.8538 41.1974V43.4376C18.8132 43.8439 18.8616 44.2534 18.9963 44.6427C19.131 45.0319 19.3494 45.3931 19.6388 45.7055C19.9282 46.0178 20.283 46.2752 20.6826 46.4627C21.0823 46.6502 21.5189 46.7641 21.9673 46.7979H26.9093C27.817 46.7294 28.6574 46.337 29.2459 45.7068C29.8344 45.0767 30.1227 44.2604 30.0475 43.4376V41.1974C30.2706 41.0601 30.4776 40.9024 30.6653 40.7269C31.0532 40.3551 31.3498 39.9115 31.5301 39.4276C31.7195 38.9544 31.8035 38.4519 31.7772 37.9491V37.1202C31.7772 35.8881 31.7772 35.8881 32.5433 35.104L33.4822 34.3199C36.6503 32.0862 38.7191 28.8101 39.2397 25.2023C39.6035 23.3337 39.5192 21.4159 38.9926 19.5794ZM26.4646 43.3928H22.5604V41.9815H26.4646V43.3928ZM24.5125 19.7362C23.7064 19.7362 22.9333 20.0265 22.3633 20.5433C21.7933 21.06 21.4731 21.7609 21.4731 22.4917C21.4731 23.0858 21.2128 23.6556 20.7494 24.0757C20.286 24.4958 19.6575 24.7319 19.0021 24.7319C18.3467 24.7319 17.7182 24.4958 17.2548 24.0757C16.7914 23.6556 16.5311 23.0858 16.5311 22.4917C16.5245 21.5398 16.7265 20.5962 17.1253 19.7156C17.524 18.835 18.1117 18.035 18.8541 17.3619C19.5966 16.6888 20.4791 16.156 21.4504 15.7945C22.4217 15.4329 23.4625 15.2499 24.5125 15.2558C25.1678 15.2558 25.7963 15.4918 26.2597 15.9119C26.7231 16.3321 26.9835 16.9019 26.9835 17.496C26.9835 18.0901 26.7231 18.6599 26.2597 19.0801C25.7963 19.5002 25.1678 19.7362 24.5125 19.7362ZM47.147 25.3367H42.625C42.1335 25.3367 41.6621 25.1597 41.3145 24.8446C40.967 24.5295 40.7717 24.1022 40.7717 23.6566C40.7717 23.211 40.967 22.7836 41.3145 22.4685C41.6621 22.1534 42.1335 21.9764 42.625 21.9764H47.147C47.6385 21.9764 48.1098 22.1534 48.4574 22.4685C48.805 22.7836 49.0002 23.211 49.0002 23.6566C49.0002 24.1022 48.805 24.5295 48.4574 24.8446C48.1098 25.1597 47.6385 25.3367 47.147 25.3367ZM38.0536 11.8731C37.8101 11.8741 37.5689 11.8311 37.344 11.7464C37.1191 11.6618 36.9151 11.5373 36.744 11.3802C36.3969 11.0652 36.202 10.6382 36.202 10.1929C36.202 9.74769 36.3969 9.32066 36.744 9.00563L39.9563 6.09336C40.3076 5.79658 40.7723 5.63501 41.2524 5.64269C41.7325 5.65037 42.1906 5.8267 42.5302 6.13453C42.8697 6.44236 43.0642 6.85766 43.0727 7.29294C43.0812 7.72821 42.9029 8.14948 42.5756 8.46798L39.3633 11.3802C39.193 11.5383 38.9892 11.6635 38.7641 11.7482C38.539 11.8329 38.2973 11.8754 38.0536 11.8731ZM43.737 39.7412C43.2482 39.7294 42.7816 39.5539 42.4273 39.2484L39.215 36.3361C38.9979 36.141 38.8374 35.9003 38.7478 35.6353C38.6582 35.3703 38.6423 35.0894 38.7015 34.8175C38.7607 34.5456 38.8931 34.2912 39.0871 34.077C39.281 33.8627 39.5304 33.6953 39.813 33.5896C40.1521 33.46 40.5264 33.4262 40.887 33.4926C41.2476 33.5589 41.5777 33.7223 41.8343 33.9615L45.0466 36.8738C45.2214 37.0282 45.3604 37.2129 45.4553 37.4168C45.5502 37.6207 45.599 37.8398 45.599 38.0611C45.599 38.2824 45.5502 38.5015 45.4553 38.7054C45.3604 38.9093 45.2214 39.0939 45.0466 39.2484C44.6994 39.5636 44.2283 39.7409 43.737 39.7412ZM10.996 11.8731C10.5047 11.8727 10.0336 11.6954 9.68638 11.3802L6.47406 8.46798C6.12672 8.15011 5.93289 7.72018 5.93521 7.27275C5.93752 6.82532 6.1358 6.39705 6.48641 6.08216C6.83703 5.76726 7.31126 5.59154 7.80479 5.59364C8.29831 5.59574 8.77071 5.7755 9.11804 6.09336L12.3057 9.00563C12.5645 9.24059 12.7407 9.53984 12.8121 9.86556C12.8835 10.1913 12.8468 10.5289 12.7067 10.8357C12.5665 11.1425 12.3292 11.4048 12.0248 11.5895C11.7203 11.7741 11.3623 11.8728 10.996 11.8731ZM5.33739 39.7412C5.09308 39.7476 4.85004 39.707 4.62431 39.6221C4.39857 39.5371 4.19525 39.4098 4.02775 39.2484C3.6807 38.9334 3.48576 38.5063 3.48576 38.0611C3.48576 37.6159 3.6807 37.1888 4.02775 36.8738L7.24007 33.9615C7.59139 33.6647 8.05605 33.5032 8.53617 33.5108C9.0163 33.5185 9.47439 33.6949 9.81394 34.0027C10.1535 34.3105 10.348 34.7258 10.3565 35.1611C10.3649 35.5964 10.1867 36.0176 9.85935 36.3361L6.67174 39.2708C6.30742 39.5733 5.83139 39.7411 5.33739 39.7412ZM6.37522 25.3367H1.85326C1.36175 25.3367 0.890361 25.1597 0.542807 24.8446C0.195253 24.5295 0 24.1022 0 23.6566C0 23.211 0.195253 22.7836 0.542807 22.4685C0.890361 22.1534 1.36175 21.9764 1.85326 21.9764H6.37522C6.86673 21.9764 7.33812 22.1534 7.68567 22.4685C8.03322 22.7836 8.22848 23.211 8.22848 23.6566C8.22848 24.1022 8.03322 24.5295 7.68567 24.8446C7.33812 25.1597 6.86673 25.3367 6.37522 25.3367Z" fill="black"/>
</svg>
