<svg width="44" height="35" viewBox="0 0 44 35" fill="none" xmlns="http://www.w3.org/2000/svg">
<path d="M26.2507 0H17.5006C9.25153 0 5.12588 -2.60772e-07 2.56431 2.56376C0.71805 4.40783 0.201798 7.06347 0.0574222 11.4844H43.6939C43.5495 7.06347 43.0332 4.40783 41.187 2.56376C38.6254 -2.60772e-07 34.4998 0 26.2507 0ZM17.5006 35.0002H26.2507C34.4998 35.0002 38.6254 35.0002 41.187 32.4364C43.7486 29.8726 43.7507 25.7492 43.7507 17.5001C43.7507 16.5347 43.7493 15.6232 43.7464 14.7657H0.00492207C0.00054705 15.6232 -0.000911494 16.5347 0.000546846 17.5001C0.000546846 25.7492 0.000546577 29.8748 2.56431 32.4364C5.12807 34.998 9.25153 35.0002 17.5006 35.0002Z" fill="white"/>
<path fill-rule="evenodd" clip-rule="evenodd" d="M7.10974 26.2501C7.10974 25.815 7.28259 25.3977 7.59027 25.09C7.89795 24.7823 8.31525 24.6095 8.75037 24.6095H17.5004C17.9355 24.6095 18.3528 24.7823 18.6605 25.09C18.9682 25.3977 19.141 25.815 19.141 26.2501C19.141 26.6852 18.9682 27.1025 18.6605 27.4102C18.3528 27.7179 17.9355 27.8908 17.5004 27.8908H8.75037C8.31525 27.8908 7.89795 27.7179 7.59027 27.4102C7.28259 27.1025 7.10974 26.6852 7.10974 26.2501ZM21.3286 26.2501C21.3286 25.815 21.5014 25.3977 21.8091 25.09C22.1168 24.7823 22.5341 24.6095 22.9692 24.6095H26.2505C26.6856 24.6095 27.1029 24.7823 27.4106 25.09C27.7182 25.3977 27.8911 25.815 27.8911 26.2501C27.8911 26.6852 27.7182 27.1025 27.4106 27.4102C27.1029 27.7179 26.6856 27.8908 26.2505 27.8908H22.9692C22.5341 27.8908 22.1168 27.7179 21.8091 27.4102C21.5014 27.1025 21.3286 26.6852 21.3286 26.2501Z" fill="black"/>
</svg>
