<svg width="49" height="49" viewBox="0 0 49 49" fill="none" xmlns="http://www.w3.org/2000/svg">
<path fill-rule="evenodd" clip-rule="evenodd" d="M24.5 0C38.0305 0 49 10.9695 49 24.5C49 38.0305 38.0305 49 24.5 49C10.9695 49 0 38.0305 0 24.5C0 10.9695 10.9695 0 24.5 0ZM34.3 15.7889C35.3116 15.7889 36.1402 14.6053 35.4368 13.8801C34.0173 12.415 32.3175 11.2506 30.4385 10.4563C28.5596 9.662 26.5399 9.25401 24.5 9.25665C16.0807 9.25665 9.25556 16.0818 9.25556 24.5011C9.25556 32.9204 16.0807 39.7455 24.5 39.7455C28.7902 39.7455 32.6656 37.9739 35.4357 35.1221C36.1402 34.3969 35.3116 33.2111 34.3 33.2111C31.9897 33.2111 29.774 32.2933 28.1403 30.6597C26.5067 29.026 25.5889 26.8103 25.5889 24.5C25.5889 22.1897 26.5067 19.974 28.1403 18.3403C29.774 16.7067 31.9897 15.7889 34.3 15.7889Z" fill="#09192F"/>
</svg>
