<svg width="45" height="29" viewBox="0 0 45 29" fill="none" xmlns="http://www.w3.org/2000/svg">
<path d="M18 20.3984L29.6775 14.2788L18 8.15934V20.3984ZM44.01 4.42644C44.3025 5.38517 44.505 6.67026 44.64 8.30213C44.7975 9.934 44.865 11.3415 44.865 12.5654L45 14.2788C45 18.7461 44.64 22.0302 44.01 24.1313C43.4475 25.9671 42.1425 27.1502 40.1175 27.6602C39.06 27.9253 37.125 28.1089 34.155 28.2313C31.23 28.3741 28.5525 28.4353 26.0775 28.4353L22.5 28.5577C13.0725 28.5577 7.2 28.2313 4.8825 27.6602C2.8575 27.1502 1.5525 25.9671 0.99 24.1313C0.6975 23.1725 0.495 21.8874 0.36 20.2556C0.2025 18.6237 0.135 17.2162 0.135 15.9923L0 14.2788C0 9.81161 0.36 6.52747 0.99 4.42644C1.5525 2.59059 2.8575 1.40749 4.8825 0.897528C5.94 0.632349 7.875 0.448763 10.845 0.326373C13.77 0.183585 16.4475 0.12239 18.9225 0.12239L22.5 0C31.9275 0 37.8 0.326374 40.1175 0.897528C42.1425 1.40749 43.4475 2.59059 44.01 4.42644Z" fill="black"/>
</svg>
