<svg width="46" height="39" viewBox="0 0 46 39" fill="none" xmlns="http://www.w3.org/2000/svg">
<path d="M7.735 3.25004L8.46625 4.69629L9.36 6.50004H16.25V14.625H3.25V3.25004H7.735ZM8.7425 3.9364e-05H1.625C1.19402 3.9364e-05 0.780698 0.171245 0.475951 0.475991C0.171205 0.780738 0 1.19406 0 1.62504V16.25C0 16.681 0.171205 17.0943 0.475951 17.3991C0.780698 17.7038 1.19402 17.875 1.625 17.875H17.875C18.306 17.875 18.7193 17.7038 19.024 17.3991C19.3288 17.0943 19.5 16.681 19.5 16.25V4.87504C19.5 4.44406 19.3288 4.03074 19.024 3.72599C18.7193 3.42124 18.306 3.25004 17.875 3.25004H11.375L10.205 0.89379C10.0687 0.623332 9.85958 0.396339 9.60116 0.238417C9.34275 0.0804963 9.04534 -0.00206824 8.7425 3.9364e-05ZM33.735 3.25004L34.4662 4.69629L35.36 6.50004H42.25V14.625H29.25V3.25004H33.735ZM34.7425 3.9364e-05H27.625C27.194 3.9364e-05 26.7807 0.171245 26.476 0.475991C26.1712 0.780738 26 1.19406 26 1.62504V16.25C26 16.681 26.1712 17.0943 26.476 17.3991C26.7807 17.7038 27.194 17.875 27.625 17.875H43.875C44.306 17.875 44.7193 17.7038 45.024 17.3991C45.3288 17.0943 45.5 16.681 45.5 16.25V4.87504C45.5 4.44406 45.3288 4.03074 45.024 3.72599C44.7193 3.42124 44.306 3.25004 43.875 3.25004H37.375L36.205 0.89379C36.0687 0.623332 35.8596 0.396339 35.6012 0.238417C35.3427 0.0804963 35.0453 -0.00206824 34.7425 3.9364e-05ZM7.735 24.375L8.46625 25.8213L9.36 27.625H16.25V35.75H3.25V24.375H7.735ZM8.7425 21.125H1.625C1.19402 21.125 0.780698 21.2962 0.475951 21.601C0.171205 21.9057 0 22.3191 0 22.75V37.375C0 37.806 0.171205 38.2193 0.475951 38.5241C0.780698 38.8288 1.19402 39 1.625 39H17.875C18.306 39 18.7193 38.8288 19.024 38.5241C19.3288 38.2193 19.5 37.806 19.5 37.375V26C19.5 25.5691 19.3288 25.1557 19.024 24.851C18.7193 24.5462 18.306 24.375 17.875 24.375H11.375L10.205 22.0188C10.0687 21.7483 9.85958 21.5213 9.60116 21.3634C9.34275 21.2055 9.04534 21.1229 8.7425 21.125ZM33.735 24.375L34.4662 25.8213L35.36 27.625H42.25V35.75H29.25V24.375H33.735ZM34.7425 21.125H27.625C27.194 21.125 26.7807 21.2962 26.476 21.601C26.1712 21.9057 26 22.3191 26 22.75V37.375C26 37.806 26.1712 38.2193 26.476 38.5241C26.7807 38.8288 27.194 39 27.625 39H43.875C44.306 39 44.7193 38.8288 45.024 38.5241C45.3288 38.2193 45.5 37.806 45.5 37.375V26C45.5 25.5691 45.3288 25.1557 45.024 24.851C44.7193 24.5462 44.306 24.375 43.875 24.375H37.375L36.205 22.0188C36.0687 21.7483 35.8596 21.5213 35.6012 21.3634C35.3427 21.2055 35.0453 21.1229 34.7425 21.125Z" fill="#09192F"/>
</svg>
