<svg width="126" height="125" viewBox="0 0 126 125" fill="none" xmlns="http://www.w3.org/2000/svg">
<path d="M45.625 125L43.125 105C41.7708 104.479 40.4958 103.854 39.3 103.125C38.1042 102.396 36.9313 101.615 35.7813 100.781L17.1875 108.594L0 78.9062L16.0938 66.7188C15.9896 65.9896 15.9375 65.2875 15.9375 64.6125V60.3937C15.9375 59.7146 15.9896 59.0104 16.0938 58.2812L0 46.0938L17.1875 16.4062L35.7813 24.2188C36.9271 23.3854 38.125 22.6042 39.375 21.875C40.625 21.1458 41.875 20.5208 43.125 20L45.625 0H80L82.5 20C83.8542 20.5208 85.1312 21.1458 86.3312 21.875C87.5312 22.6042 88.7021 23.3854 89.8438 24.2188L108.437 16.4062L125.625 46.0938L109.531 58.2812C109.635 59.0104 109.687 59.7146 109.687 60.3937V64.6062C109.687 65.2854 109.583 65.9896 109.375 66.7188L125.469 78.9062L108.281 108.594L89.8438 100.781C88.6979 101.615 87.5 102.396 86.25 103.125C85 103.854 83.75 104.479 82.5 105L80 125H45.625ZM63.125 84.375C69.1667 84.375 74.3229 82.2396 78.5938 77.9688C82.8646 73.6979 85 68.5417 85 62.5C85 56.4583 82.8646 51.3021 78.5938 47.0312C74.3229 42.7604 69.1667 40.625 63.125 40.625C56.9792 40.625 51.7958 42.7604 47.575 47.0312C43.3542 51.3021 41.2458 56.4583 41.25 62.5C41.2542 68.5417 43.3646 73.6979 47.5812 77.9688C51.7979 82.2396 56.9792 84.375 63.125 84.375Z" fill="black"/>
</svg>
