<svg width="138" height="100" viewBox="0 0 138 100" fill="none" xmlns="http://www.w3.org/2000/svg">
<path d="M87.5 62.5C70.8125 62.5 37.5 70.8125 37.5 87.5V100H137.5V87.5C137.5 70.8125 104.188 62.5 87.5 62.5ZM31.25 37.5V18.75H18.75V37.5H0V50H18.75V68.75H31.25V50H50V37.5M87.5 50C94.1304 50 100.489 47.3661 105.178 42.6777C109.866 37.9893 112.5 31.6304 112.5 25C112.5 18.3696 109.866 12.0107 105.178 7.32233C100.489 2.63392 94.1304 0 87.5 0C80.8696 0 74.5107 2.63392 69.8223 7.32233C65.1339 12.0107 62.5 18.3696 62.5 25C62.5 31.6304 65.1339 37.9893 69.8223 42.6777C74.5107 47.3661 80.8696 50 87.5 50Z" fill="black"/>
</svg>
