<svg width="125" height="113" viewBox="0 0 125 113" fill="none" xmlns="http://www.w3.org/2000/svg">
<path fill-rule="evenodd" clip-rule="evenodd" d="M59.375 9.54044e-07C65.5195 -0.00159894 71.4954 2.00906 76.3893 5.72458C81.2831 9.4401 84.8255 14.656 86.475 20.575L86.8 21.8563L98.4875 18.9375C99.3418 18.7249 100.231 18.6951 101.098 18.8501C101.964 19.0052 102.788 19.3416 103.516 19.8372C104.244 20.3328 104.858 20.9766 105.32 21.7263C105.781 22.476 106.079 23.3147 106.194 24.1875L106.25 25V36.3125C109.775 39.6893 112.663 43.6738 114.775 48.075L115.638 50H118.75C120.281 50.0002 121.758 50.5622 122.902 51.5795C124.046 52.5967 124.777 53.9984 124.956 55.5188L125 56.25V75C125 76.0287 124.746 77.0415 124.261 77.9486C123.776 78.8557 123.074 79.6291 122.219 80.2L121.544 80.5875L114.244 84.2438C111.26 90.029 106.93 95.0126 101.619 98.775L100 99.8625V106.25C99.9998 107.781 99.4378 109.258 98.4205 110.402C97.4033 111.546 96.0016 112.277 94.4813 112.456L93.75 112.5H75C73.4692 112.5 71.9916 111.938 70.8477 110.921C69.7037 109.903 68.9729 108.502 68.7937 106.981L68.75 106.25H62.5C62.4998 107.781 61.9378 109.258 60.9205 110.402C59.9033 111.546 58.5016 112.277 56.9812 112.456L56.25 112.5H37.5C35.9692 112.5 34.4916 111.938 33.3477 110.921C32.2037 109.903 31.4729 108.502 31.2938 106.981L31.25 106.25V99.8625C26.7331 96.978 22.8315 93.2282 19.7702 88.8292C16.7088 84.4302 14.5481 79.469 13.4125 74.2312C9.72613 73.136 6.4657 70.9337 4.07318 67.9229C1.68065 64.9121 0.271767 61.2385 0.0375003 57.4L0 56.25V53.125C0.00176692 51.532 0.611745 49.9998 1.7053 48.8414C2.79886 47.6831 4.29346 46.986 5.88372 46.8927C7.47398 46.7993 9.03987 47.3167 10.2615 48.3392C11.483 49.3616 12.2681 50.8119 12.4563 52.3938L12.5 53.125V56.25C12.5083 57.1833 12.6958 58.0479 13.0625 58.8438C14.015 53.2164 16.1425 47.853 19.3063 43.1029C22.4702 38.3527 26.5994 34.3226 31.425 31.275C30.9815 27.3405 31.3738 23.3568 32.5762 19.5843C33.7785 15.8119 35.7638 12.3359 38.4022 9.38365C41.0405 6.43141 44.2725 4.06951 47.8867 2.45247C51.5008 0.835443 55.4156 -0.000274506 59.375 9.54044e-07ZM87.5 50C85.8424 50 84.2527 50.6585 83.0806 51.8306C81.9085 53.0027 81.25 54.5924 81.25 56.25C81.25 57.9076 81.9085 59.4973 83.0806 60.6694C84.2527 61.8415 85.8424 62.5 87.5 62.5C89.1576 62.5 90.7473 61.8415 91.9194 60.6694C93.0915 59.4973 93.75 57.9076 93.75 56.25C93.75 54.5924 93.0915 53.0027 91.9194 51.8306C90.7473 50.6585 89.1576 50 87.5 50ZM59.375 12.5C55.5893 12.5 51.9324 13.8744 49.0838 16.3678C46.2352 18.8611 44.3887 22.3039 43.8875 26.0563C46.9161 25.3518 50.0156 24.9974 53.125 25H74.2312L74.6687 24.8938C73.9276 21.3872 72.0035 18.2421 69.219 15.9856C66.4345 13.7292 62.959 12.4985 59.375 12.5Z" fill="black"/>
</svg>
