<svg width="79" height="113" viewBox="0 0 79 113" fill="none" xmlns="http://www.w3.org/2000/svg">
<path fill-rule="evenodd" clip-rule="evenodd" d="M9.84018 0C7.2304 0 4.72751 0.939893 2.88212 2.61291C1.03673 4.28593 0 6.55503 0 8.92104V104.079C0 106.445 1.03673 108.714 2.88212 110.387C4.72751 112.06 7.2304 113 9.84018 113H68.8813C71.491 113 73.9939 112.06 75.8393 110.387C77.6847 108.714 78.7214 106.445 78.7214 104.079V8.92104C78.7214 6.55503 77.6847 4.28593 75.8393 2.61291C73.9939 0.939893 71.491 0 68.8813 0H9.84018ZM6.56012 8.92104C6.56012 8.13237 6.9057 7.37601 7.52083 6.81833C8.13596 6.26066 8.97025 5.94736 9.84018 5.94736H19.6804V11.8947C19.6804 12.6834 20.0259 13.4398 20.6411 13.9974C21.2562 14.5551 22.0905 14.8684 22.9604 14.8684H55.761C56.6309 14.8684 57.4652 14.5551 58.0804 13.9974C58.6955 13.4398 59.0411 12.6834 59.0411 11.8947V5.94736H68.8813C69.7512 5.94736 70.5855 6.26066 71.2006 6.81833C71.8157 7.37601 72.1613 8.13237 72.1613 8.92104V104.079C72.1613 104.867 71.8157 105.624 71.2006 106.182C70.5855 106.739 69.7512 107.053 68.8813 107.053H9.84018C8.97025 107.053 8.13596 106.739 7.52083 106.182C6.9057 105.624 6.56012 104.867 6.56012 104.079V8.92104Z" fill="black"/>
</svg>
