<svg width="52" height="32" viewBox="0 0 52 32" fill="none" xmlns="http://www.w3.org/2000/svg">
<path d="M0 5.25C0 2.3543 2.33188 0 5.2 0H46.8C49.6681 0 52 2.3543 52 5.25V26.25C52 29.1457 49.6681 31.5 46.8 31.5H5.2C2.33188 31.5 0 29.1457 0 26.25V5.25ZM26 5.25V26.25H46.8V5.25H26ZM14.4869 9.1793C14.2269 8.58867 13.6419 8.20312 13 8.20312C12.3581 8.20312 11.7731 8.58867 11.5131 9.1793L6.31312 20.9918C5.9475 21.8203 6.32125 22.7883 7.14187 23.1574C7.9625 23.5266 8.92125 23.1492 9.28687 22.3207L10.01 20.6719H15.99L16.7131 22.3207C17.0787 23.1492 18.0375 23.5184 18.8581 23.1574C19.6787 22.7965 20.0444 21.8203 19.6869 20.9918L14.4869 9.1793ZM13 13.8797L14.5437 17.3906H11.4562L13 13.8797ZM36.4 8.20312C37.2937 8.20312 38.025 8.94141 38.025 9.84375V10.1719H42.9C43.7937 10.1719 44.525 10.9102 44.525 11.8125C44.525 12.7148 43.7937 13.4531 42.9 13.4531H42.7375L42.6075 13.8223C41.8844 15.8238 40.7875 17.6449 39.39 19.1871C39.4631 19.2363 39.5362 19.2773 39.6094 19.3184L41.145 20.2453C41.9169 20.7129 42.1606 21.7219 41.7056 22.493C41.2506 23.2641 40.2431 23.5184 39.4794 23.059L37.9437 22.132C37.5781 21.9105 37.2287 21.6809 36.8794 21.4348C36.0181 22.05 35.1 22.5832 34.1169 23.0262L33.8244 23.1574C33.0037 23.5266 32.045 23.1492 31.6794 22.3207C31.3137 21.4922 31.6875 20.5242 32.5081 20.1551L32.8006 20.0238C33.3206 19.7859 33.8244 19.5234 34.3037 19.2199L33.3125 18.2191C32.6787 17.5793 32.6787 16.5375 33.3125 15.8977C33.9462 15.2578 34.9781 15.2578 35.6119 15.8977L36.7981 17.0953L36.8387 17.1363C37.8462 16.0617 38.6669 14.8148 39.26 13.4449L36.4 13.4531H30.55C29.6562 13.4531 28.925 12.7148 28.925 11.8125C28.925 10.9102 29.6562 10.1719 30.55 10.1719H34.775V9.84375C34.775 8.94141 35.5062 8.20312 36.4 8.20312Z" fill="#09192F"/>
</svg>
