<svg width="35" height="44" viewBox="0 0 35 44" fill="none" xmlns="http://www.w3.org/2000/svg">
<path d="M28.4375 15.3125V10.9375C28.4375 4.81251 23.625 0 17.5 0C11.375 0 6.56251 4.81251 6.56251 10.9375V15.3125C2.84375 15.3125 0 18.1563 0 21.875V37.1875C0 40.9063 2.84375 43.7501 6.56251 43.7501H28.4375C32.1563 43.7501 35 40.9063 35 37.1875V21.875C35 18.1563 32.1563 15.3125 28.4375 15.3125ZM10.9375 10.9375C10.9375 7.21876 13.7813 4.37501 17.5 4.37501C21.2188 4.37501 24.0625 7.21876 24.0625 10.9375V15.3125H10.9375V10.9375ZM19.9063 29.5313L19.6875 29.75V32.8125C19.6875 34.125 18.8125 35 17.5 35C16.1875 35 15.3125 34.125 15.3125 32.8125V29.75C14 28.4375 13.7813 26.4688 15.0938 25.1563C16.4063 23.8438 18.375 23.625 19.6875 24.9375C21 26.0313 21.2188 28.2188 19.9063 29.5313Z" fill="black"/>
</svg>
