<svg width="35" height="44" viewBox="0 0 35 44" fill="none" xmlns="http://www.w3.org/2000/svg">
<path d="M28.4374 15.3125V10.9375C28.4374 4.81249 23.6249 0 17.5 0C11.375 0 6.56248 4.81249 6.56248 10.9375V15.3125C2.84374 15.3125 0 18.1562 0 21.8749V37.1874C0 40.9062 2.84374 43.7499 6.56248 43.7499H28.4374C32.1562 43.7499 34.9999 40.9062 34.9999 37.1874V21.8749C34.9999 18.1562 32.1562 15.3125 28.4374 15.3125ZM10.9375 10.9375C10.9375 7.21873 13.7812 4.37499 17.5 4.37499C21.2187 4.37499 24.0624 7.21873 24.0624 10.9375V15.3125H10.9375V10.9375ZM19.9062 29.5312L19.6875 29.7499V32.8124C19.6875 34.1249 18.8125 34.9999 17.5 34.9999C16.1875 34.9999 15.3125 34.1249 15.3125 32.8124V29.7499C14 28.4374 13.7812 26.4687 15.0937 25.1562C16.4062 23.8437 18.375 23.6249 19.6875 24.9374C20.9999 26.0312 21.2187 28.2187 19.9062 29.5312Z" fill="black"/>
</svg>
